<svg xmlns:dc="http://purl.org/dc/elements/1.1/" xmlns:cc="http://creativecommons.org/ns#" xmlns:rdf="http://www.w3.org/1999/02/22-rdf-syntax-ns#" xmlns:svg="http://www.w3.org/2000/svg" xmlns="http://www.w3.org/2000/svg" xmlns:sodipodi="http://sodipodi.sourceforge.net/DTD/sodipodi-0.dtd" xmlns:inkscape="http://www.inkscape.org/namespaces/inkscape" version="1.1" x="0px" y="0px" viewBox="0 0 100 125"><g transform="translate(0,-952.36218)"><path style="text-indent:0;text-transform:none;direction:ltr;block-progression:tb;baseline-shift:baseline;color:#000000;enable-background:accumulate;" d="m 60.257271,973.37275 a 2.0001998,2.0001998 0 0 1 0.9688,0.40625 l 31.999999,25 a 2.0001998,2.0001998 0 0 1 0,3.1562 l -31.999999,25 a 2.0001998,2.0001998 0 0 1 -3.2188,-1.5625 l 0,-10.0312 c -2.5341,-0.1022 -8.1954,-0.2514 -16.5625,1.1875 -9.9771,1.7159 -22.1983,5.6635 -32.1250003,14.3437 a 2.0001998,2.0001998 0 0 1 -3.218698,-2.125 C 14.451671,1003.0195 39.870571,990.75611 58.007271,985.87275 l 0,-10.5 a 2.0001998,2.0001998 0 0 1 2.25,-2 z m 1.75,6.0625 0,7.9375 a 2.0001998,2.0001998 0 0 1 -1.5,1.9375 c -15.7966,3.99898 -37.8405,14.16135 -47.7812,34.15625 9.3045,-6.1968 19.4709,-9.4027 28.0312,-10.875 10.4415,-1.7957 18.7107,-1.2485 19.3438,-1.2187 a 2.0001998,2.0001998 0 0 1 1.9062,2 l 0,7.9062 26.75,-20.9063 -26.75,-20.93745 z" fill="#000000" fill-opacity="1" stroke="none" marker="none" visibility="visible" display="inline" overflow="visible"/></g><text x="0" y="115" fill="#000000" font-size="5px" font-weight="bold" font-family="'Helvetica Neue', Helvetica, Arial-Unicode, Arial, Sans-serif">Created by Numero Uno</text><text x="0" y="120" fill="#000000" font-size="5px" font-weight="bold" font-family="'Helvetica Neue', Helvetica, Arial-Unicode, Arial, Sans-serif">from the Noun Project</text></svg>